<?xml version="1.0" standalone="no"?><!DOCTYPE svg PUBLIC "-//W3C//DTD SVG 1.1//EN" "http://www.w3.org/Graphics/SVG/1.1/DTD/svg11.dtd"><svg t="1497606297459" class="icon" style="" viewBox="0 0 1024 1024" version="1.1" xmlns="http://www.w3.org/2000/svg" p-id="10469" xmlns:xlink="http://www.w3.org/1999/xlink" width="32" height="32"><defs><style type="text/css"></style></defs><path d="M849.635 517.673l-340.181-318.069-340.181 317.135c-6.655 6.204-7.026 16.639-0.807 23.287 6.213 6.644 16.658 7.019 23.309 0.8l317.653-296.12 317.667 297.021c3.187 2.977 7.233 4.45 11.271 4.45 4.396 0 8.795-1.747 12.038-5.221 6.225-6.644 5.883-17.067-0.771-23.282v0zM745.828 524.205c-9.105 0-16.492 7.382-16.492 16.475v252.628h-131.937v-175.741h-175.914v175.741h-131.933v-252.628c0-9.093-7.378-16.475-16.491-16.475-9.117 0-16.494 7.382-16.494 16.475v285.577h197.905v-175.74h109.946v175.74h197.9v-285.577c0.001-9.093-7.387-16.475-16.488-16.475v0zM630.386 288.056h98.95v87.869c0 9.107 7.387 16.479 16.492 16.479 9.103 0 16.489-7.373 16.489-16.479v-120.818h-131.933c-9.107 0-16.494 7.368-16.494 16.475-0.001 9.104 7.388 16.475 16.494 16.475v0zM630.386 288.056z" fill="#ffffff" p-id="10470"></path></svg>